<svg xmlns="http://www.w3.org/2000/svg" id="undraw_product_photography_91i2" width="559.71" height="404.229" viewBox="0 0 559.71 404.229"><path id="Path_178" data-name="Path 178" d="M198.756,365.4S199.9,388.9,149.8,417.852c0,0-.063.127,366.885,0,0,0-41.908-29.78-44.638-63.052" transform="translate(-54.682 -129.513)" opacity="0.2"></path><path id="Path_179" data-name="Path 179" d="M469.647,219.064V21.652A11,11,0,0,0,477.9,10.985h0A10.989,10.989,0,0,0,466.916,0H202.642a11.043,11.043,0,0,0-11.048,10.985h0A10.989,10.989,0,0,0,202.579,21.97h0l-6.1,197.221L147.4,282.053H514.285C514.285,282.117,514.031,282.751,469.647,219.064Z" transform="translate(-53.806)" fill="#e6e6e6"></path><path id="Path_180" data-name="Path 180" d="M234.4,34.408l267,7.747.063-8.255Z" transform="translate(-85.563 -12.375)" opacity="0.2"></path><path id="Path_181" data-name="Path 181" d="M183.985,46.2l-39.432.254S79.66,81,125.187,152.43c0,0,18.6-4.381,39.178,10.794C164.428,163.225,176.429,48.867,183.985,46.2Z" transform="translate(-39.784 -16.864)" fill="#3899ff"></path><path id="Path_182" data-name="Path 182" d="M177.891,46.727c-7.112,29.463-15.049,105.532-15.049,105.532-18.351-13.588-35.177-11.493-38.543-10.921,1.968,3.937,4.191,7.747,6.54,11.493,0,0,18.6-4.381,39.178,10.794,0,0,12-114.358,19.557-117.025Z" transform="translate(-45.373 -17.01)" opacity="0.2"></path><path id="Path_183" data-name="Path 183" d="M106.9,98.194l-3.429,16.636-43.051-7.81h0L59.4,87.4h8.318Z" transform="translate(-21.683 -31.904)" fill="#515759"></path><path id="Path_184" data-name="Path 184" d="M67.02,87.4l-6.6,19.621h0L59.4,87.4Z" transform="translate(-21.683 -31.904)" opacity="0.2"></path><ellipse id="Ellipse_43" data-name="Ellipse 43" cx="4.889" cy="11.239" rx="4.889" ry="11.239" transform="translate(78.863 62.417)" fill="#3f3d56"></ellipse><path id="Path_185" data-name="Path 185" d="M90.924,353.11a1.545,1.545,0,0,1-1.524-1.524h0V115.124a1.524,1.524,0,0,1,3.048,0h0V351.586a1.545,1.545,0,0,1-1.524,1.524Z" transform="translate(-32.634 -41.468)" fill="#515759"></path><path id="Path_186" data-name="Path 186" d="M111.522,493.971a1.5,1.5,0,0,1-1.46-1.206l-20.573-105.4a1.559,1.559,0,0,1,1.206-1.778,1.457,1.457,0,0,1,1.524.635l54.353,82.927a1.515,1.515,0,0,1-2.54,1.651h0L93.87,394.28l19.113,97.912a1.559,1.559,0,0,1-1.206,1.778h-.254Z" transform="translate(-32.659 -140.737)" fill="#515759"></path><path id="Path_187" data-name="Path 187" d="M1.524,475.466A1.491,1.491,0,0,1,0,474.006a1.276,1.276,0,0,1,.254-.826L57.02,386.507a1.515,1.515,0,1,1,2.54,1.651L2.73,474.768A1.361,1.361,0,0,1,1.524,475.466Z" transform="translate(0 -140.838)" fill="#515759"></path><path id="Path_188" data-name="Path 188" d="M654.4,46.2l39.432.254S758.725,81,713.2,152.43c0,0-18.6-4.381-39.178,10.794C673.957,163.225,661.956,48.867,654.4,46.2Z" transform="translate(-238.877 -16.864)" fill="#3899ff"></path><path id="Path_189" data-name="Path 189" d="M666.083,46.727c7.112,29.463,15.049,105.532,15.049,105.532,18.351-13.588,35.177-11.493,38.543-10.921-1.968,3.937-4.191,7.747-6.54,11.493,0,0-18.6-4.381-39.178,10.794,0,0-12-114.358-19.557-117.025Z" transform="translate(-238.877 -17.01)" opacity="0.2"></path><path id="Path_190" data-name="Path 190" d="M747.3,98.194l3.429,16.636,43.051-7.81h0L794.8,87.4h-8.318Z" transform="translate(-272.788 -31.904)" fill="#515759"></path><path id="Path_191" data-name="Path 191" d="M810.1,87.4l6.6,19.621h0L817.72,87.4Z" transform="translate(-295.712 -31.904)" opacity="0.2"></path><ellipse id="Ellipse_44" data-name="Ellipse 44" cx="4.889" cy="11.239" rx="4.889" ry="11.239" transform="translate(471.083 62.417)" fill="#3f3d56"></ellipse><path id="Path_192" data-name="Path 192" d="M788.824,353.11a1.545,1.545,0,0,1-1.524-1.524h0V115.124a1.524,1.524,0,0,1,3.048,0V351.586a1.545,1.545,0,0,1-1.524,1.524Z" transform="translate(-287.389 -41.468)" fill="#515759"></path><path id="Path_193" data-name="Path 193" d="M736.976,493.961h-.317a1.525,1.525,0,0,1-1.206-1.778l19.113-97.912L704.4,470.785a1.515,1.515,0,1,1-2.54-1.651h0l54.353-82.927a1.526,1.526,0,0,1,2.1-.444,1.457,1.457,0,0,1,.635,1.524l-20.573,105.4A1.384,1.384,0,0,1,736.976,493.961Z" transform="translate(-256.115 -140.728)" fill="#515759"></path><path id="Path_194" data-name="Path 194" d="M845.6,475.43a1.544,1.544,0,0,1-1.27-.7l-56.766-86.673a1.515,1.515,0,0,1,2.54-1.651h0l56.766,86.673a1.538,1.538,0,0,1-.445,2.1A1.171,1.171,0,0,1,845.6,475.43Z" transform="translate(-287.398 -140.801)" fill="#515759"></path><path id="Path_195" data-name="Path 195" d="M382.072,316.837l10.731-2.984s4.191-.826,1.651-9.017-7.683-5.905-7.683-5.905l-9.525,2.794-3.746,1.143,5.27,7.429.444,4.953Z" transform="translate(-136.339 -109.012)" fill="#3f3d56"></path><path id="Path_196" data-name="Path 196" d="M352.465,292.251l-3.365,13.4,17.208,16.7,1.524.381,3.937-1.079,3.365-13.461-3.429-3.556,3.492-.952-7.429-7.175-3.873.762-3.111-3.048,2.1-.825.191-.825-2.54-1.968Z" transform="translate(-127.432 -106.078)" fill="#3f3d56"></path><path id="Path_197" data-name="Path 197" d="M372.609,317.342l-2.222,8.89L360.1,316.517l2.6-9.017Z" transform="translate(-131.448 -112.247)" fill="#3899ff"></path><path id="Path_198" data-name="Path 198" d="M354.144,292.251l-.444,1.841,17.081,16.7,1.524.381,3.81-1.079h.19l.508-1.9-3.429-3.556,3.492-.952-7.429-7.175-3.873.762-3.111-3.048,2.1-.825.191-.825-2.54-1.968Z" transform="translate(-129.112 -106.078)" fill="none" stroke="#3f3d56" stroke-width="1"></path><ellipse id="Ellipse_45" data-name="Ellipse 45" cx="0.952" cy="1.397" rx="0.952" ry="1.397" transform="translate(231.388 186.534) rotate(-75.943)" fill="#3899ff"></ellipse><ellipse id="Ellipse_46" data-name="Ellipse 46" cx="0.952" cy="1.397" rx="0.952" ry="1.397" transform="translate(242.24 200.939) rotate(-75.943)" fill="#3899ff"></ellipse><path id="Path_199" data-name="Path 199" d="M391.994,339.958l-2.349-7.937s6.1-14.477-.952-15.874c-6.985-1.4-7.493,13.588-7.493,13.588l2.794,8.89Z" transform="translate(-139.15 -115.37)" fill="#ffb6b6"></path><circle id="Ellipse_47" data-name="Ellipse 47" cx="18.605" cy="18.605" r="18.605" transform="translate(190.872 171.886)" fill="#ffb6b6"></circle><path id="Path_200" data-name="Path 200" d="M324.516,318.838s1.079,13.652,3.81,14.731-29.526,8.763-29.526,8.763l8.191-9.271s1.651-14.223-2.159-17.462Z" transform="translate(-109.071 -115.204)" fill="#ffb6b6"></path><path id="Path_201" data-name="Path 201" d="M380.6,346.452l7.493-.952s8.89,4.7,8.89,10.731c0,6.1,5.143,15.874,5.143,15.874s3.746,13.08-4.7,14.033-15.874-14.033-15.874-14.033Z" transform="translate(-138.931 -126.118)" fill="#3899ff"></path><path id="Path_202" data-name="Path 202" d="M350.608,455.753s16.382-15.43,21.017-14.477,14.033,2.349,14.033,9.334-15.43,23.367-15.43,23.367-11.683,25.716-22.922,26.669a197.162,197.162,0,0,0-21.97,3.3s5.143,18.732,2.349,23.875-13.588,11.239-14.477,10.731-14.033-12.636-19.621-29.907-9.334-30.415-4.191-31.3S350.608,455.753,350.608,455.753Z" transform="translate(-104.748 -161.064)" fill="#515759"></path><path id="Path_203" data-name="Path 203" d="M426.368,453.8s3.3-.445,2.794,7.493-1.841,36.511-4.191,42.1-2.794,12.191-1.841,14.477,2.794,6.1-.444,6.54-16.827-1.4-18.224-1.841-2.794-8.445-1.841-8.445,3.3-.444,2.349-3.746-1.4-3.3,0-4.191,5.143-2.349,4.191-3.3-1.841-22.922-1.841-22.922Z" transform="translate(-146.855 -165.649)" fill="#515759"></path><path id="Path_204" data-name="Path 204" d="M422.9,561.413s7.937-2.349,8.889,2.794c0,0,1.4,7.937-4.7,10.731a76.26,76.26,0,0,0-11.239,6.54s-9.842,3.746-10.287-.952S407.408,559,407.408,559Z" transform="translate(-148.024 -204.053)" fill="#515759"></path><path id="Path_205" data-name="Path 205" d="M339.452,564.691,324.467,552.5s2.794,14.985-.952,17.779L321.8,575.3l4.762,3.937C326.626,579.169,341.357,576.819,339.452,564.691Z" transform="translate(-117.467 -201.68)" fill="#2f2e41"></path><path id="Path_206" data-name="Path 206" d="M306.6,539.241s9.842,2.794,8.445,12.636-3.175,20.51-3.175,20.51-.508,26.288-7.556,28.129-8.889-1.841-8.889-1.841-8-20.509-5.588-26.669c2.857-7.429,6.985-15.747,5.588-18.224C294.03,551.242,296.316,537.844,306.6,539.241Z" transform="translate(-105.635 -196.803)" fill="#515759"></path><path id="Path_207" data-name="Path 207" d="M293.975,335.123s3.746.445,9.842,1.4,10.286-3.746,13.588-2.794,30.415,7.493,30.415,7.493l-4.191,32.256s5.143,37.4,4.191,43.94S359.059,423,352.011,431s-19.176,14.985-43.94,12.636-28.066-1.841-28.066-5.588,5.588-35.558,3.746-38.352-5.588-6.1-3.746-9.334,3.746-5.143.952-7.937-4.191-5.588-4.191-6.985S270.1,351,270.1,351s2.794-11.239,6.1-11.683,6.1-2.794,8.445-2.794,3.746.444,5.143,0Z" transform="translate(-98.595 -121.774)" fill="#3899ff"></path><path id="Path_208" data-name="Path 208" d="M349.287,277.731c-.254-1.08-1.4-4.7-3.81-5.588-1.778-.635-5.016.7-6.667.508l-.19-.571a13,13,0,0,0-.889-3.429,17.473,17.473,0,0,0-9.588-9.779c-5.334-2.222-13.779-4.064-21.144,1.778-10.1,8.064-8.318,20.065-7.556,23.43.127.571.254,1.143.317,1.651.444,2.921,1.778,3.3,1.778,3.3a1,1,0,0,0-.064-.254l9.08.889,4.953-.825a7.185,7.185,0,0,0,.127.762c14.35-2.222,22.732-9.779,24.065-11.048a14.68,14.68,0,0,0,5.588,2.349C348.4,281.287,349.541,278.811,349.287,277.731Zm-37.019,7.239-11.556-.444c-.19-3.175.635-6.858,5.27-7.048,4.508-.19,6.921,3.492,8.255,6.794Z" transform="translate(-109.078 -93.717)" fill="#2f2e41"></path><ellipse id="Ellipse_48" data-name="Ellipse 48" cx="2.032" cy="0.762" rx="2.032" ry="0.762" transform="translate(203.968 163.089) rotate(-9.684)" fill="#2f2e41"></ellipse></svg>